<svg xmlns="http://www.w3.org/2000/svg" xmlns:xlink="http://www.w3.org/1999/xlink" width="500" zoomAndPan="magnify" viewBox="0 0 375 374.999991" height="500" preserveAspectRatio="xMidYMid meet" version="1.0"><defs><g/><clipPath id="id1"><path d="M 71.097656 137.078125 L 164.097656 137.078125 L 164.097656 219.558594 L 71.097656 219.558594 Z M 71.097656 137.078125 " clip-rule="nonzero"/></clipPath></defs><rect x="-37.5" width="450" fill="#ffffff" y="-37.499999" height="449.999989" fill-opacity="1"/><rect x="-37.5" width="450" fill="#f1f1f1" y="-37.499999" height="449.999989" fill-opacity="1"/><rect x="-37.5" width="450" fill="#ffffff" y="-37.499999" height="449.999989" fill-opacity="1"/><rect x="-37.5" width="450" fill="#f1f1f1" y="-37.499999" height="449.999989" fill-opacity="1"/><g clip-path="url(#id1)"><path fill="#5ce1e6" d="M 91.792969 156.933594 C 84.945312 155.082031 78.253906 153.90625 73.53125 153.859375 C 72.859375 153.851562 71.929688 153.839844 71.261719 153.921875 C 71.195312 153.933594 71.097656 153.949219 71.097656 153.960938 C 76.054688 157.285156 79.402344 160.773438 82.6875 164.367188 C 89.398438 171.707031 98.566406 182.117188 109.257812 182.617188 C 110.289062 182.664062 111.332031 182.632812 112.371094 182.65625 C 111.894531 183.101562 111.148438 183.800781 110.675781 184.242188 C 106.34375 188.269531 94.011719 201.371094 94.421875 219.558594 C 94.621094 218.847656 94.910156 217.859375 95.246094 216.847656 C 99.226562 204.921875 107.125 200.644531 116.679688 196.679688 C 131.886719 190.371094 133.871094 188.691406 137.925781 173.164062 C 138.738281 170.054688 139.644531 167.46875 143.15625 162.707031 C 144.359375 161.082031 145.15625 160.261719 146.167969 159.789062 C 149.398438 158.277344 158.785156 158.433594 162.574219 158.46875 C 162.703125 158.46875 164.113281 158.503906 164.097656 158.367188 C 164.09375 158.355469 163.882812 158.253906 163.722656 158.191406 C 159.804688 156.695312 149.214844 156.585938 145.210938 157.152344 C 145.050781 157.175781 144.90625 157.199219 144.777344 157.214844 C 144.753906 157.207031 144.6875 157.164062 144.640625 157.136719 C 144.597656 157.109375 144.578125 157.09375 144.554688 157.078125 C 141.515625 154.929688 137.664062 153.589844 134.03125 155.132812 C 129.042969 157.25 126.222656 163.804688 125.164062 168.828125 C 125.070312 169.269531 124.980469 169.679688 124.933594 169.816406 C 124.902344 169.769531 124.816406 169.058594 124.476562 167.953125 C 120.546875 155.171875 96.640625 141.773438 84.371094 137.757812 C 83.695312 137.535156 82.761719 137.226562 82.0625 137.097656 C 81.992188 137.085938 81.886719 137.070312 81.882812 137.082031 C 85.8125 142.011719 88.0625 146.59375 90.21875 151.261719 C 91.179688 153.339844 92.132812 155.378906 93.125 157.363281 L 91.792969 156.933594 " fill-opacity="1" fill-rule="evenodd"/></g><g fill="#000000" fill-opacity="1"><g transform="translate(145.43239, 192.682892)"><g><path d="M 15.078125 -13.171875 C 15.597656 -13.109375 16.148438 -12.9375 16.734375 -12.65625 C 17.328125 -12.382812 17.875 -12 18.375 -11.5 C 18.882812 -11.007812 19.3125 -10.40625 19.65625 -9.6875 C 20 -8.976562 20.171875 -8.160156 20.171875 -7.234375 C 20.171875 -6.097656 20 -5.125 19.65625 -4.3125 C 19.3125 -3.5 18.882812 -2.828125 18.375 -2.296875 C 17.875 -1.765625 17.320312 -1.34375 16.71875 -1.03125 C 16.125 -0.726562 15.546875 -0.5 14.984375 -0.34375 C 14.429688 -0.1875 13.941406 -0.0859375 13.515625 -0.046875 C 13.085938 -0.015625 12.800781 0 12.65625 0 L 8.71875 0 L 8.71875 -2.984375 L 12.421875 -2.984375 C 13.617188 -2.984375 14.554688 -3.367188 15.234375 -4.140625 C 15.921875 -4.910156 16.265625 -5.941406 16.265625 -7.234375 C 16.265625 -8.453125 15.910156 -9.476562 15.203125 -10.3125 C 14.503906 -11.15625 13.476562 -11.578125 12.125 -11.578125 L 8.71875 -11.578125 L 8.71875 -14.328125 L 10.359375 -14.328125 C 10.859375 -14.328125 11.363281 -14.335938 11.875 -14.359375 C 12.394531 -14.378906 12.878906 -14.503906 13.328125 -14.734375 C 13.785156 -14.960938 14.15625 -15.347656 14.4375 -15.890625 C 14.726562 -16.429688 14.875 -17.210938 14.875 -18.234375 C 14.875 -18.640625 14.816406 -19.0625 14.703125 -19.5 C 14.585938 -19.945312 14.359375 -20.347656 14.015625 -20.703125 C 13.679688 -21.066406 13.195312 -21.363281 12.5625 -21.59375 C 11.925781 -21.820312 11.085938 -21.9375 10.046875 -21.9375 L 8.71875 -21.9375 L 8.71875 -25.015625 L 10.453125 -25.015625 C 11.515625 -25.015625 12.546875 -24.890625 13.546875 -24.640625 C 14.546875 -24.398438 15.425781 -24.003906 16.1875 -23.453125 C 16.957031 -22.910156 17.566406 -22.203125 18.015625 -21.328125 C 18.472656 -20.460938 18.703125 -19.429688 18.703125 -18.234375 C 18.703125 -17.523438 18.585938 -16.882812 18.359375 -16.3125 C 18.140625 -15.738281 17.859375 -15.234375 17.515625 -14.796875 C 17.179688 -14.367188 16.789062 -14.015625 16.34375 -13.734375 C 15.90625 -13.453125 15.484375 -13.265625 15.078125 -13.171875 Z M 3.265625 -25.015625 L 7.328125 -25.015625 L 7.328125 0 L 3.265625 0 Z M 3.265625 -25.015625 "/></g></g></g><g fill="#000000" fill-opacity="1"><g transform="translate(168.214941, 192.682892)"><g><path d="M 7.296875 -25.015625 L 7.296875 -3.09375 L 18.8125 -3.09375 L 18.8125 0 L 3.15625 0 L 3.15625 -25.015625 Z M 7.296875 -25.015625 "/></g></g></g><g fill="#000000" fill-opacity="1"><g transform="translate(188.043569, 192.682892)"><g><path d="M 2.609375 -12.625 C 2.609375 -14.644531 2.851562 -16.425781 3.34375 -17.96875 C 3.832031 -19.519531 4.507812 -20.832031 5.375 -21.90625 C 6.25 -22.988281 7.28125 -23.816406 8.46875 -24.390625 C 9.65625 -24.972656 10.953125 -25.304688 12.359375 -25.390625 L 12.359375 -22 C 11.585938 -21.90625 10.863281 -21.664062 10.1875 -21.28125 C 9.507812 -20.894531 8.921875 -20.328125 8.421875 -19.578125 C 7.921875 -18.835938 7.523438 -17.890625 7.234375 -16.734375 C 6.941406 -15.578125 6.78125 -14.207031 6.75 -12.625 C 6.78125 -11.019531 6.941406 -9.644531 7.234375 -8.5 C 7.523438 -7.363281 7.925781 -6.410156 8.4375 -5.640625 C 8.945312 -4.867188 9.539062 -4.285156 10.21875 -3.890625 C 10.894531 -3.492188 11.609375 -3.257812 12.359375 -3.1875 L 12.359375 0.171875 C 10.972656 0.078125 9.679688 -0.253906 8.484375 -0.828125 C 7.285156 -1.410156 6.25 -2.238281 5.375 -3.3125 C 4.507812 -4.382812 3.832031 -5.703125 3.34375 -7.265625 C 2.851562 -8.828125 2.609375 -10.613281 2.609375 -12.625 Z M 13.71875 -25.390625 C 15.09375 -25.328125 16.375 -25 17.5625 -24.40625 C 18.757812 -23.820312 19.789062 -22.988281 20.65625 -21.90625 C 21.53125 -20.832031 22.210938 -19.519531 22.703125 -17.96875 C 23.203125 -16.425781 23.453125 -14.644531 23.453125 -12.625 C 23.453125 -10.613281 23.203125 -8.828125 22.703125 -7.265625 C 22.210938 -5.703125 21.53125 -4.382812 20.65625 -3.3125 C 19.789062 -2.238281 18.769531 -1.410156 17.59375 -0.828125 C 16.414062 -0.253906 15.125 0.078125 13.71875 0.171875 L 13.71875 -3.1875 C 14.488281 -3.28125 15.210938 -3.523438 15.890625 -3.921875 C 16.566406 -4.316406 17.15625 -4.894531 17.65625 -5.65625 C 18.15625 -6.414062 18.550781 -7.363281 18.84375 -8.5 C 19.132812 -9.644531 19.289062 -11.019531 19.3125 -12.625 C 19.289062 -14.238281 19.132812 -15.613281 18.84375 -16.75 C 18.550781 -17.894531 18.148438 -18.847656 17.640625 -19.609375 C 17.128906 -20.367188 16.535156 -20.945312 15.859375 -21.34375 C 15.179688 -21.738281 14.46875 -21.96875 13.71875 -22.03125 Z M 13.71875 -25.390625 "/></g></g></g><g fill="#000000" fill-opacity="1"><g transform="translate(214.119573, 192.682892)"><g><path d="M 17.25 -20.203125 C 16.726562 -20.785156 16.171875 -21.222656 15.578125 -21.515625 C 14.992188 -21.816406 14.363281 -21.988281 13.6875 -22.03125 L 13.6875 -25.390625 C 16.21875 -25.273438 18.34375 -24.382812 20.0625 -22.71875 Z M 13.6875 -3.1875 C 14.363281 -3.257812 15 -3.441406 15.59375 -3.734375 C 16.195312 -4.023438 16.75 -4.457031 17.25 -5.03125 L 20.0625 -2.546875 C 19.207031 -1.710938 18.242188 -1.066406 17.171875 -0.609375 C 16.109375 -0.160156 14.945312 0.0976562 13.6875 0.171875 Z M 2.6875 -12.625 C 2.6875 -14.644531 2.925781 -16.421875 3.40625 -17.953125 C 3.894531 -19.492188 4.566406 -20.796875 5.421875 -21.859375 C 6.285156 -22.921875 7.300781 -23.742188 8.46875 -24.328125 C 9.632812 -24.921875 10.910156 -25.273438 12.296875 -25.390625 L 12.296875 -22 C 11.546875 -21.882812 10.84375 -21.628906 10.1875 -21.234375 C 9.53125 -20.835938 8.953125 -20.265625 8.453125 -19.515625 C 7.953125 -18.773438 7.5625 -17.832031 7.28125 -16.6875 C 7 -15.539062 6.847656 -14.1875 6.828125 -12.625 C 6.847656 -11.039062 7 -9.679688 7.28125 -8.546875 C 7.5625 -7.421875 7.953125 -6.472656 8.453125 -5.703125 C 8.953125 -4.929688 9.535156 -4.34375 10.203125 -3.9375 C 10.867188 -3.53125 11.566406 -3.28125 12.296875 -3.1875 L 12.296875 0.140625 C 10.910156 0.046875 9.632812 -0.289062 8.46875 -0.875 C 7.300781 -1.46875 6.285156 -2.296875 5.421875 -3.359375 C 4.566406 -4.421875 3.894531 -5.726562 3.40625 -7.28125 C 2.925781 -8.832031 2.6875 -10.613281 2.6875 -12.625 Z M 2.6875 -12.625 "/></g></g></g><g fill="#000000" fill-opacity="1"><g transform="translate(236.902124, 192.682892)"><g><path d="M 3.15625 0 L 3.15625 -25.015625 L 7.296875 -25.015625 L 7.296875 0 Z M 11.40625 -12.15625 L 20.09375 0 L 15.375 0 L 8.6875 -9.84375 L 8.6875 -14.796875 L 14.765625 -25.015625 L 19.421875 -25.015625 Z M 11.40625 -12.15625 "/></g></g></g><g fill="#000000" fill-opacity="1"><g transform="translate(161.120925, 241.116513)"><g><path d="M 3.09375 -25.015625 L 7.15625 -25.015625 L 7.15625 0 L 3.09375 0 Z M 10.28125 -25.015625 C 11.34375 -25.015625 12.394531 -24.84375 13.4375 -24.5 C 14.476562 -24.164062 15.410156 -23.660156 16.234375 -22.984375 C 17.066406 -22.304688 17.738281 -21.484375 18.25 -20.515625 C 18.757812 -19.554688 19.015625 -18.476562 19.015625 -17.28125 C 19.015625 -16.007812 18.796875 -14.859375 18.359375 -13.828125 C 17.929688 -12.804688 17.332031 -11.941406 16.5625 -11.234375 C 15.789062 -10.535156 14.863281 -9.992188 13.78125 -9.609375 C 12.695312 -9.222656 11.5 -9.03125 10.1875 -9.03125 L 8.5625 -9.03125 L 8.5625 -12.015625 L 10.890625 -12.015625 C 11.390625 -12.015625 11.882812 -12.097656 12.375 -12.265625 C 12.863281 -12.441406 13.3125 -12.722656 13.71875 -13.109375 C 14.125 -13.492188 14.453125 -14.03125 14.703125 -14.71875 C 14.953125 -15.40625 15.078125 -16.257812 15.078125 -17.28125 C 15.078125 -17.6875 15.019531 -18.15625 14.90625 -18.6875 C 14.789062 -19.21875 14.554688 -19.726562 14.203125 -20.21875 C 13.859375 -20.707031 13.367188 -21.113281 12.734375 -21.4375 C 12.097656 -21.769531 11.257812 -21.9375 10.21875 -21.9375 L 8.5625 -21.9375 L 8.5625 -25.015625 Z M 10.28125 -25.015625 "/></g></g></g><g fill="#000000" fill-opacity="1"><g transform="translate(181.662569, 241.116513)"><g><path d="M 3.21875 -25.015625 L 7.375 -25.015625 L 7.375 0 L 3.21875 0 Z M 17.828125 -11.265625 L 8.765625 -11.265625 L 8.765625 -14.0625 L 17.828125 -14.0625 Z M 8.765625 -3.09375 L 18.875 -3.09375 L 18.875 0 L 8.765625 0 Z M 18.875 -25.015625 L 18.875 -21.9375 L 8.765625 -21.9375 L 8.765625 -25.015625 Z M 18.875 -25.015625 "/></g></g></g><g fill="#000000" fill-opacity="1"><g transform="translate(202.985134, 241.116513)"><g><path d="M 20.78125 -25.015625 L 20.78125 -22.234375 L 13.3125 -22.234375 L 13.3125 0 L 9.203125 0 L 9.203125 -22.234375 L 1.734375 -22.234375 L 1.734375 -25.015625 Z M 20.78125 -25.015625 "/></g></g></g><g fill="#000000" fill-opacity="1"><g transform="translate(225.49606, 241.116513)"><g><path d="M 14.625 -21.15625 C 14.519531 -21.195312 14.382812 -21.273438 14.21875 -21.390625 C 14.0625 -21.503906 13.835938 -21.609375 13.546875 -21.703125 C 13.253906 -21.804688 12.878906 -21.890625 12.421875 -21.953125 C 11.972656 -22.023438 11.394531 -22.039062 10.6875 -22 L 10.6875 -25.421875 C 11.6875 -25.398438 12.703125 -25.289062 13.734375 -25.09375 C 14.765625 -24.90625 15.597656 -24.609375 16.234375 -24.203125 C 16.097656 -23.910156 15.9375 -23.585938 15.75 -23.234375 C 15.570312 -22.890625 15.398438 -22.5625 15.234375 -22.25 C 15.078125 -21.945312 14.941406 -21.691406 14.828125 -21.484375 C 14.722656 -21.285156 14.65625 -21.175781 14.625 -21.15625 Z M 2.921875 -18.4375 C 2.921875 -19.425781 3.085938 -20.316406 3.421875 -21.109375 C 3.765625 -21.910156 4.222656 -22.609375 4.796875 -23.203125 C 5.378906 -23.804688 6.0625 -24.28125 6.84375 -24.625 C 7.625 -24.976562 8.441406 -25.210938 9.296875 -25.328125 L 9.296875 -21.765625 C 8.578125 -21.515625 7.976562 -21.078125 7.5 -20.453125 C 7.03125 -19.828125 6.796875 -19.203125 6.796875 -18.578125 C 6.796875 -17.691406 7.03125 -16.976562 7.5 -16.4375 C 7.976562 -15.894531 8.578125 -15.414062 9.296875 -15 L 9.296875 -11.140625 C 8.554688 -11.492188 7.8125 -11.878906 7.0625 -12.296875 C 6.3125 -12.722656 5.628906 -13.21875 5.015625 -13.78125 C 4.410156 -14.34375 3.910156 -15 3.515625 -15.75 C 3.117188 -16.5 2.921875 -17.394531 2.921875 -18.4375 Z M 3.46875 -4.578125 C 3.78125 -4.398438 4.175781 -4.222656 4.65625 -4.046875 C 5.144531 -3.878906 5.648438 -3.722656 6.171875 -3.578125 C 6.691406 -3.429688 7.210938 -3.3125 7.734375 -3.21875 C 8.253906 -3.132812 8.742188 -3.09375 9.203125 -3.09375 L 9.296875 -3.09375 L 9.296875 0.140625 L 9.234375 0.140625 C 8.691406 0.140625 8.128906 0.109375 7.546875 0.046875 C 6.972656 -0.00390625 6.390625 -0.0976562 5.796875 -0.234375 C 5.210938 -0.367188 4.65625 -0.554688 4.125 -0.796875 C 3.59375 -1.035156 3.132812 -1.320312 2.75 -1.65625 Z M 10.6875 -14.328125 C 11.4375 -13.984375 12.203125 -13.617188 12.984375 -13.234375 C 13.765625 -12.847656 14.472656 -12.378906 15.109375 -11.828125 C 15.742188 -11.273438 16.265625 -10.601562 16.671875 -9.8125 C 17.078125 -9.019531 17.28125 -8.035156 17.28125 -6.859375 C 17.28125 -6.046875 17.125 -5.253906 16.8125 -4.484375 C 16.507812 -3.710938 16.082031 -3.015625 15.53125 -2.390625 C 14.976562 -1.765625 14.289062 -1.238281 13.46875 -0.8125 C 12.65625 -0.382812 11.726562 -0.101562 10.6875 0.03125 L 10.6875 -3.21875 C 12.550781 -3.675781 13.484375 -4.910156 13.484375 -6.921875 C 13.484375 -7.710938 13.222656 -8.367188 12.703125 -8.890625 C 12.179688 -9.410156 11.507812 -9.898438 10.6875 -10.359375 Z M 10.6875 -14.328125 "/></g></g></g><g fill="#000000" fill-opacity="1"><g transform="translate(142.571025, 208.629477)"><g><path d="M 1.589844 -0.730469 L 1.589844 -2.773438 L 4.039062 -2.773438 L 4.039062 -3.476562 L 1.589844 -3.476562 L 1.589844 -5.351562 L 4.265625 -5.351562 L 4.265625 -6.082031 L 0.824219 -6.082031 L 0.824219 0 L 4.363281 0 L 4.363281 -0.730469 Z M 1.589844 -0.730469 "/></g></g></g><g fill="#000000" fill-opacity="1"><g transform="translate(149.409896, 208.629477)"><g><path d="M 4.925781 -6.082031 L 4.925781 -1.390625 L 1.519531 -6.082031 L 0.824219 -6.082031 L 0.824219 0 L 1.574219 0 L 1.574219 -4.746094 L 5.03125 0 L 5.675781 0 L 5.675781 -6.082031 Z M 4.925781 -6.082031 "/></g></g></g><g fill="#000000" fill-opacity="1"><g transform="translate(157.951689, 208.629477)"><g><path d="M 4.734375 -6.082031 L 4.734375 -3.492188 L 1.589844 -3.492188 L 1.589844 -6.082031 L 0.824219 -6.082031 L 0.824219 0 L 1.589844 0 L 1.589844 -2.761719 L 4.734375 -2.761719 L 4.734375 0 L 5.5 0 L 5.5 -6.082031 Z M 4.734375 -6.082031 "/></g></g></g><g fill="#000000" fill-opacity="1"><g transform="translate(166.31971, 208.629477)"><g><path d="M 5.074219 0 L 5.902344 0 L 3.34375 -6.082031 L 2.632812 -6.082031 L 0.148438 0 L 0.957031 0 L 1.546875 -1.453125 L 4.476562 -1.453125 Z M 3 -5.03125 L 4.1875 -2.15625 L 1.832031 -2.15625 Z M 3 -5.03125 "/></g></g></g><g fill="#000000" fill-opacity="1"><g transform="translate(174.409702, 208.629477)"><g><path d="M 4.925781 -6.082031 L 4.925781 -1.390625 L 1.519531 -6.082031 L 0.824219 -6.082031 L 0.824219 0 L 1.574219 0 L 1.574219 -4.746094 L 5.03125 0 L 5.675781 0 L 5.675781 -6.082031 Z M 4.925781 -6.082031 "/></g></g></g><g fill="#000000" fill-opacity="1"><g transform="translate(182.951493, 208.629477)"><g><path d="M 3.527344 0.09375 C 4.960938 0.09375 6.089844 -0.765625 6.4375 -2.136719 L 5.664062 -2.136719 C 5.34375 -1.207031 4.554688 -0.652344 3.527344 -0.652344 C 2.171875 -0.652344 1.191406 -1.632812 1.191406 -3.03125 C 1.191406 -4.433594 2.171875 -5.429688 3.527344 -5.429688 C 4.527344 -5.429688 5.308594 -4.902344 5.632812 -4.023438 L 6.414062 -4.023438 C 6.066406 -5.335938 4.9375 -6.171875 3.527344 -6.171875 C 1.71875 -6.171875 0.410156 -4.859375 0.410156 -3.03125 C 0.410156 -1.214844 1.71875 0.09375 3.527344 0.09375 Z M 3.527344 0.09375 "/></g></g></g><g fill="#000000" fill-opacity="1"><g transform="translate(191.727866, 208.629477)"><g><path d="M 1.589844 -0.730469 L 1.589844 -2.773438 L 4.039062 -2.773438 L 4.039062 -3.476562 L 1.589844 -3.476562 L 1.589844 -5.351562 L 4.265625 -5.351562 L 4.265625 -6.082031 L 0.824219 -6.082031 L 0.824219 0 L 4.363281 0 L 4.363281 -0.730469 Z M 1.589844 -0.730469 "/></g></g></g><g fill="#000000" fill-opacity="1"><g transform="translate(198.566735, 208.629477)"><g/></g></g><g fill="#000000" fill-opacity="1"><g transform="translate(202.877291, 208.629477)"><g><path d="M 5.492188 -6.082031 L 4.65625 -6.082031 L 2.859375 -3.136719 L 1.070312 -6.082031 L 0.234375 -6.082031 L 2.460938 -2.425781 L 2.460938 0 L 3.25 0 L 3.25 -2.425781 Z M 5.492188 -6.082031 "/></g></g></g><g fill="#000000" fill-opacity="1"><g transform="translate(210.628439, 208.629477)"><g><path d="M 3.597656 0.105469 C 5.441406 0.105469 6.777344 -1.242188 6.777344 -3.03125 C 6.777344 -4.832031 5.441406 -6.179688 3.597656 -6.179688 C 1.753906 -6.179688 0.410156 -4.832031 0.410156 -3.03125 C 0.410156 -1.242188 1.753906 0.105469 3.597656 0.105469 Z M 3.597656 -0.644531 C 2.214844 -0.644531 1.191406 -1.675781 1.191406 -3.03125 C 1.191406 -4.398438 2.214844 -5.429688 3.597656 -5.429688 C 4.980469 -5.429688 6.003906 -4.40625 6.003906 -3.03125 C 6.003906 -1.667969 4.980469 -0.644531 3.597656 -0.644531 Z M 3.597656 -0.644531 "/></g></g></g><g fill="#000000" fill-opacity="1"><g transform="translate(219.865297, 208.629477)"><g><path d="M 3.144531 0.105469 C 4.511719 0.105469 5.527344 -0.878906 5.527344 -2.257812 L 5.527344 -6.082031 L 4.761719 -6.082031 L 4.761719 -2.320312 C 4.761719 -1.3125 4.085938 -0.644531 3.144531 -0.644531 C 2.199219 -0.644531 1.53125 -1.3125 1.53125 -2.320312 L 1.53125 -6.082031 L 0.757812 -6.082031 L 0.757812 -2.257812 C 0.757812 -0.878906 1.773438 0.105469 3.144531 0.105469 Z M 3.144531 0.105469 "/></g></g></g><g fill="#000000" fill-opacity="1"><g transform="translate(228.189875, 208.629477)"><g><path d="M 4.371094 0 L 5.230469 0 L 3.773438 -2.46875 C 4.570312 -2.695312 5.117188 -3.363281 5.117188 -4.222656 C 5.117188 -5.300781 4.277344 -6.082031 3.136719 -6.082031 L 0.824219 -6.082031 L 0.824219 0 L 1.589844 0 L 1.589844 -2.371094 L 2.972656 -2.371094 Z M 1.589844 -5.351562 L 3.09375 -5.351562 C 3.839844 -5.351562 4.335938 -4.875 4.335938 -4.222656 C 4.335938 -3.570312 3.839844 -3.101562 3.09375 -3.101562 L 1.589844 -3.101562 Z M 1.589844 -5.351562 "/></g></g></g><g fill="#000000" fill-opacity="1"><g transform="translate(235.819388, 208.629477)"><g/></g></g><g fill="#000000" fill-opacity="1"><g transform="translate(240.129943, 208.629477)"><g><path d="M 1.589844 -0.710938 L 1.589844 -6.082031 L 0.824219 -6.082031 L 0.824219 0 L 4.257812 0 L 4.257812 -0.710938 Z M 1.589844 -0.710938 "/></g></g></g><g fill="#000000" fill-opacity="1"><g transform="translate(246.612589, 208.629477)"><g><path d="M 0.824219 0 L 1.589844 0 L 1.589844 -6.082031 L 0.824219 -6.082031 Z M 0.824219 0 "/></g></g></g><g fill="#000000" fill-opacity="1"><g transform="translate(251.070845, 208.629477)"><g><path d="M 4.242188 -5.351562 L 4.242188 -6.082031 L 0.824219 -6.082031 L 0.824219 0 L 1.589844 0 L 1.589844 -2.640625 L 4.015625 -2.640625 L 4.015625 -3.34375 L 1.589844 -3.34375 L 1.589844 -5.351562 Z M 4.242188 -5.351562 "/></g></g></g><g fill="#000000" fill-opacity="1"><g transform="translate(257.649062, 208.629477)"><g><path d="M 1.589844 -0.730469 L 1.589844 -2.773438 L 4.039062 -2.773438 L 4.039062 -3.476562 L 1.589844 -3.476562 L 1.589844 -5.351562 L 4.265625 -5.351562 L 4.265625 -6.082031 L 0.824219 -6.082031 L 0.824219 0 L 4.363281 0 L 4.363281 -0.730469 Z M 1.589844 -0.730469 "/></g></g></g></svg>